<svg xmlns="http://www.w3.org/2000/svg" version="1.1" xmlns:xlink="http://www.w3.org/1999/xlink" xmlns:svgjs="http://svgjs.dev/svgjs" viewBox="0 0 800 800" opacity="0.8" width="800" height="800"><g stroke-width="1" stroke="hsla(150, 76%, 9%, 1.00)" fill="none"><rect width="30.76923076923077" height="2.263157894736842" x="-15.384615384615385" y="-1.131578947368421" stroke="none" fill="hsla(150, 76%, 9%, 1.00)" rx="1.131578947368421"></rect><rect width="2.263157894736842" height="30.76923076923077" x="-1.131578947368421" y="-15.384615384615385" stroke="none" fill="hsla(150, 76%, 9%, 1.00)" rx="1.131578947368421"></rect><rect width="30.76923076923077" height="2.263157894736842" x="46.15384615384615" y="-1.131578947368421" stroke="none" fill="hsla(150, 76%, 9%, 1.00)" rx="1.131578947368421"></rect><rect width="2.263157894736842" height="30.76923076923077" x="60.40688259109312" y="-15.384615384615385" stroke="none" fill="hsla(150, 76%, 9%, 1.00)" rx="1.131578947368421"></rect><rect width="30.76923076923077" height="2.263157894736842" x="107.6923076923077" y="-1.131578947368421" stroke="none" fill="hsla(150, 76%, 9%, 1.00)" rx="1.131578947368421"></rect><rect width="2.263157894736842" height="30.76923076923077" x="121.94534412955466" y="-15.384615384615385" stroke="none" fill="hsla(150, 76%, 9%, 1.00)" rx="1.131578947368421"></rect><rect width="30.76923076923077" height="2.263157894736842" x="169.23076923076923" y="-1.131578947368421" stroke="none" fill="hsla(150, 76%, 9%, 1.00)" rx="1.131578947368421"></rect><rect width="2.263157894736842" height="30.76923076923077" x="183.4838056680162" y="-15.384615384615385" stroke="none" fill="hsla(150, 76%, 9%, 1.00)" rx="1.131578947368421"></rect><rect width="30.76923076923077" height="2.263157894736842" x="230.76923076923077" y="-1.131578947368421" stroke="none" fill="hsla(150, 76%, 9%, 1.00)" rx="1.131578947368421"></rect><rect width="2.263157894736842" height="30.76923076923077" x="245.02226720647775" y="-15.384615384615385" stroke="none" fill="hsla(150, 76%, 9%, 1.00)" rx="1.131578947368421"></rect><rect width="30.76923076923077" height="2.263157894736842" x="292.3076923076923" y="-1.131578947368421" stroke="none" fill="hsla(150, 76%, 9%, 1.00)" rx="1.131578947368421"></rect><rect width="2.263157894736842" height="30.76923076923077" x="306.56072874493924" y="-15.384615384615385" stroke="none" fill="hsla(150, 76%, 9%, 1.00)" rx="1.131578947368421"></rect><rect width="30.76923076923077" height="2.263157894736842" x="353.84615384615387" y="-1.131578947368421" stroke="none" fill="hsla(150, 76%, 9%, 1.00)" rx="1.131578947368421"></rect><rect width="2.263157894736842" height="30.76923076923077" x="368.0991902834008" y="-15.384615384615385" stroke="none" fill="hsla(150, 76%, 9%, 1.00)" rx="1.131578947368421"></rect><rect width="30.76923076923077" height="2.263157894736842" x="415.3846153846154" y="-1.131578947368421" stroke="none" fill="hsla(150, 76%, 9%, 1.00)" rx="1.131578947368421"></rect><rect width="2.263157894736842" height="30.76923076923077" x="429.63765182186233" y="-15.384615384615385" stroke="none" fill="hsla(150, 76%, 9%, 1.00)" rx="1.131578947368421"></rect><rect width="30.76923076923077" height="2.263157894736842" x="476.92307692307696" y="-1.131578947368421" stroke="none" fill="hsla(150, 76%, 9%, 1.00)" rx="1.131578947368421"></rect><rect width="2.263157894736842" height="30.76923076923077" x="491.1761133603239" y="-15.384615384615385" stroke="none" fill="hsla(150, 76%, 9%, 1.00)" rx="1.131578947368421"></rect><rect width="30.76923076923077" height="2.263157894736842" x="538.4615384615385" y="-1.131578947368421" stroke="none" fill="hsla(150, 76%, 9%, 1.00)" rx="1.131578947368421"></rect><rect width="2.263157894736842" height="30.76923076923077" x="552.7145748987854" y="-15.384615384615385" stroke="none" fill="hsla(150, 76%, 9%, 1.00)" rx="1.131578947368421"></rect><rect width="30.76923076923077" height="2.263157894736842" x="600" y="-1.131578947368421" stroke="none" fill="hsla(150, 76%, 9%, 1.00)" rx="1.131578947368421"></rect><rect width="2.263157894736842" height="30.76923076923077" x="614.2530364372469" y="-15.384615384615385" stroke="none" fill="hsla(150, 76%, 9%, 1.00)" rx="1.131578947368421"></rect><rect width="30.76923076923077" height="2.263157894736842" x="661.5384615384615" y="-1.131578947368421" stroke="none" fill="hsla(150, 76%, 9%, 1.00)" rx="1.131578947368421"></rect><rect width="2.263157894736842" height="30.76923076923077" x="675.7914979757085" y="-15.384615384615385" stroke="none" fill="hsla(150, 76%, 9%, 1.00)" rx="1.131578947368421"></rect><rect width="30.76923076923077" height="2.263157894736842" x="723.0769230769231" y="-1.131578947368421" stroke="none" fill="hsla(150, 76%, 9%, 1.00)" rx="1.131578947368421"></rect><rect width="2.263157894736842" height="30.76923076923077" x="737.32995951417" y="-15.384615384615385" stroke="none" fill="hsla(150, 76%, 9%, 1.00)" rx="1.131578947368421"></rect><rect width="30.76923076923077" height="2.263157894736842" x="784.6153846153846" y="-1.131578947368421" stroke="none" fill="hsla(150, 76%, 9%, 1.00)" rx="1.131578947368421"></rect><rect width="2.263157894736842" height="30.76923076923077" x="798.8684210526316" y="-15.384615384615385" stroke="none" fill="hsla(150, 76%, 9%, 1.00)" rx="1.131578947368421"></rect><rect width="30.76923076923077" height="2.263157894736842" x="-15.384615384615385" y="65.53508771929825" stroke="none" fill="hsla(150, 76%, 9%, 1.00)" rx="1.131578947368421"></rect><rect width="2.263157894736842" height="30.76923076923077" x="-1.131578947368421" y="51.282051282051285" stroke="none" fill="hsla(150, 76%, 9%, 1.00)" rx="1.131578947368421"></rect><rect width="30.76923076923077" height="2.263157894736842" x="46.15384615384615" y="65.53508771929825" stroke="none" fill="hsla(150, 76%, 9%, 1.00)" rx="1.131578947368421"></rect><rect width="2.263157894736842" height="30.76923076923077" x="60.40688259109312" y="51.282051282051285" stroke="none" fill="hsla(150, 76%, 9%, 1.00)" rx="1.131578947368421"></rect><rect width="30.76923076923077" height="2.263157894736842" x="107.6923076923077" y="65.53508771929825" stroke="none" fill="hsla(150, 76%, 9%, 1.00)" rx="1.131578947368421"></rect><rect width="2.263157894736842" height="30.76923076923077" x="121.94534412955466" y="51.282051282051285" stroke="none" fill="hsla(150, 76%, 9%, 1.00)" rx="1.131578947368421"></rect><rect width="30.76923076923077" height="2.263157894736842" x="169.23076923076923" y="65.53508771929825" stroke="none" fill="hsla(150, 76%, 9%, 1.00)" rx="1.131578947368421"></rect><rect width="2.263157894736842" height="30.76923076923077" x="183.4838056680162" y="51.282051282051285" stroke="none" fill="hsla(150, 76%, 9%, 1.00)" rx="1.131578947368421"></rect><rect width="30.76923076923077" height="2.263157894736842" x="230.76923076923077" y="65.53508771929825" stroke="none" fill="hsla(150, 76%, 9%, 1.00)" rx="1.131578947368421"></rect><rect width="2.263157894736842" height="30.76923076923077" x="245.02226720647775" y="51.282051282051285" stroke="none" fill="hsla(150, 76%, 9%, 1.00)" rx="1.131578947368421"></rect><rect width="30.76923076923077" height="2.263157894736842" x="292.3076923076923" y="65.53508771929825" stroke="none" fill="hsla(150, 76%, 9%, 1.00)" rx="1.131578947368421"></rect><rect width="2.263157894736842" height="30.76923076923077" x="306.56072874493924" y="51.282051282051285" stroke="none" fill="hsla(150, 76%, 9%, 1.00)" rx="1.131578947368421"></rect><rect width="30.76923076923077" height="2.263157894736842" x="353.84615384615387" y="65.53508771929825" stroke="none" fill="hsla(150, 76%, 9%, 1.00)" rx="1.131578947368421"></rect><rect width="2.263157894736842" height="30.76923076923077" x="368.0991902834008" y="51.282051282051285" stroke="none" fill="hsla(150, 76%, 9%, 1.00)" rx="1.131578947368421"></rect><rect width="30.76923076923077" height="2.263157894736842" x="415.3846153846154" y="65.53508771929825" stroke="none" fill="hsla(150, 76%, 9%, 1.00)" rx="1.131578947368421"></rect><rect width="2.263157894736842" height="30.76923076923077" x="429.63765182186233" y="51.282051282051285" stroke="none" fill="hsla(150, 76%, 9%, 1.00)" rx="1.131578947368421"></rect><rect width="30.76923076923077" height="2.263157894736842" x="476.92307692307696" y="65.53508771929825" stroke="none" fill="hsla(150, 76%, 9%, 1.00)" rx="1.131578947368421"></rect><rect width="2.263157894736842" height="30.76923076923077" x="491.1761133603239" y="51.282051282051285" stroke="none" fill="hsla(150, 76%, 9%, 1.00)" rx="1.131578947368421"></rect><rect width="30.76923076923077" height="2.263157894736842" x="538.4615384615385" y="65.53508771929825" stroke="none" fill="hsla(150, 76%, 9%, 1.00)" rx="1.131578947368421"></rect><rect width="2.263157894736842" height="30.76923076923077" x="552.7145748987854" y="51.282051282051285" stroke="none" fill="hsla(150, 76%, 9%, 1.00)" rx="1.131578947368421"></rect><rect width="30.76923076923077" height="2.263157894736842" x="600" y="65.53508771929825" stroke="none" fill="hsla(150, 76%, 9%, 1.00)" rx="1.131578947368421"></rect><rect width="2.263157894736842" height="30.76923076923077" x="614.2530364372469" y="51.282051282051285" stroke="none" fill="hsla(150, 76%, 9%, 1.00)" rx="1.131578947368421"></rect><rect width="30.76923076923077" height="2.263157894736842" x="661.5384615384615" y="65.53508771929825" stroke="none" fill="hsla(150, 76%, 9%, 1.00)" rx="1.131578947368421"></rect><rect width="2.263157894736842" height="30.76923076923077" x="675.7914979757085" y="51.282051282051285" stroke="none" fill="hsla(150, 76%, 9%, 1.00)" rx="1.131578947368421"></rect><rect width="30.76923076923077" height="2.263157894736842" x="723.0769230769231" y="65.53508771929825" stroke="none" fill="hsla(150, 76%, 9%, 1.00)" rx="1.131578947368421"></rect><rect width="2.263157894736842" height="30.76923076923077" x="737.32995951417" y="51.282051282051285" stroke="none" fill="hsla(150, 76%, 9%, 1.00)" rx="1.131578947368421"></rect><rect width="30.76923076923077" height="2.263157894736842" x="784.6153846153846" y="65.53508771929825" stroke="none" fill="hsla(150, 76%, 9%, 1.00)" rx="1.131578947368421"></rect><rect width="2.263157894736842" height="30.76923076923077" x="798.8684210526316" y="51.282051282051285" stroke="none" fill="hsla(150, 76%, 9%, 1.00)" rx="1.131578947368421"></rect><rect width="30.76923076923077" height="2.263157894736842" x="-15.384615384615385" y="132.20175438596493" stroke="none" fill="hsla(150, 76%, 9%, 1.00)" rx="1.131578947368421"></rect><rect width="2.263157894736842" height="30.76923076923077" x="-1.131578947368421" y="117.94871794871796" stroke="none" fill="hsla(150, 76%, 9%, 1.00)" rx="1.131578947368421"></rect><rect width="30.76923076923077" height="2.263157894736842" x="46.15384615384615" y="132.20175438596493" stroke="none" fill="hsla(150, 76%, 9%, 1.00)" rx="1.131578947368421"></rect><rect width="2.263157894736842" height="30.76923076923077" x="60.40688259109312" y="117.94871794871796" stroke="none" fill="hsla(150, 76%, 9%, 1.00)" rx="1.131578947368421"></rect><rect width="30.76923076923077" height="2.263157894736842" x="107.6923076923077" y="132.20175438596493" stroke="none" fill="hsla(150, 76%, 9%, 1.00)" rx="1.131578947368421"></rect><rect width="2.263157894736842" height="30.76923076923077" x="121.94534412955466" y="117.94871794871796" stroke="none" fill="hsla(150, 76%, 9%, 1.00)" rx="1.131578947368421"></rect><rect width="30.76923076923077" height="2.263157894736842" x="169.23076923076923" y="132.20175438596493" stroke="none" fill="hsla(150, 76%, 9%, 1.00)" rx="1.131578947368421"></rect><rect width="2.263157894736842" height="30.76923076923077" x="183.4838056680162" y="117.94871794871796" stroke="none" fill="hsla(150, 76%, 9%, 1.00)" rx="1.131578947368421"></rect><rect width="30.76923076923077" height="2.263157894736842" x="230.76923076923077" y="132.20175438596493" stroke="none" fill="hsla(150, 76%, 9%, 1.00)" rx="1.131578947368421"></rect><rect width="2.263157894736842" height="30.76923076923077" x="245.02226720647775" y="117.94871794871796" stroke="none" fill="hsla(150, 76%, 9%, 1.00)" rx="1.131578947368421"></rect><rect width="30.76923076923077" height="2.263157894736842" x="292.3076923076923" y="132.20175438596493" stroke="none" fill="hsla(150, 76%, 9%, 1.00)" rx="1.131578947368421"></rect><rect width="2.263157894736842" height="30.76923076923077" x="306.56072874493924" y="117.94871794871796" stroke="none" fill="hsla(150, 76%, 9%, 1.00)" rx="1.131578947368421"></rect><rect width="30.76923076923077" height="2.263157894736842" x="353.84615384615387" y="132.20175438596493" stroke="none" fill="hsla(150, 76%, 9%, 1.00)" rx="1.131578947368421"></rect><rect width="2.263157894736842" height="30.76923076923077" x="368.0991902834008" y="117.94871794871796" stroke="none" fill="hsla(150, 76%, 9%, 1.00)" rx="1.131578947368421"></rect><rect width="30.76923076923077" height="2.263157894736842" x="415.3846153846154" y="132.20175438596493" stroke="none" fill="hsla(150, 76%, 9%, 1.00)" rx="1.131578947368421"></rect><rect width="2.263157894736842" height="30.76923076923077" x="429.63765182186233" y="117.94871794871796" stroke="none" fill="hsla(150, 76%, 9%, 1.00)" rx="1.131578947368421"></rect><rect width="30.76923076923077" height="2.263157894736842" x="476.92307692307696" y="132.20175438596493" stroke="none" fill="hsla(150, 76%, 9%, 1.00)" rx="1.131578947368421"></rect><rect width="2.263157894736842" height="30.76923076923077" x="491.1761133603239" y="117.94871794871796" stroke="none" fill="hsla(150, 76%, 9%, 1.00)" rx="1.131578947368421"></rect><rect width="30.76923076923077" height="2.263157894736842" x="538.4615384615385" y="132.20175438596493" stroke="none" fill="hsla(150, 76%, 9%, 1.00)" rx="1.131578947368421"></rect><rect width="2.263157894736842" height="30.76923076923077" x="552.7145748987854" y="117.94871794871796" stroke="none" fill="hsla(150, 76%, 9%, 1.00)" rx="1.131578947368421"></rect><rect width="30.76923076923077" height="2.263157894736842" x="600" y="132.20175438596493" stroke="none" fill="hsla(150, 76%, 9%, 1.00)" rx="1.131578947368421"></rect><rect width="2.263157894736842" height="30.76923076923077" x="614.2530364372469" y="117.94871794871796" stroke="none" fill="hsla(150, 76%, 9%, 1.00)" rx="1.131578947368421"></rect><rect width="30.76923076923077" height="2.263157894736842" x="661.5384615384615" y="132.20175438596493" stroke="none" fill="hsla(150, 76%, 9%, 1.00)" rx="1.131578947368421"></rect><rect width="2.263157894736842" height="30.76923076923077" x="675.7914979757085" y="117.94871794871796" stroke="none" fill="hsla(150, 76%, 9%, 1.00)" rx="1.131578947368421"></rect><rect width="30.76923076923077" height="2.263157894736842" x="723.0769230769231" y="132.20175438596493" stroke="none" fill="hsla(150, 76%, 9%, 1.00)" rx="1.131578947368421"></rect><rect width="2.263157894736842" height="30.76923076923077" x="737.32995951417" y="117.94871794871796" stroke="none" fill="hsla(150, 76%, 9%, 1.00)" rx="1.131578947368421"></rect><rect width="30.76923076923077" height="2.263157894736842" x="784.6153846153846" y="132.20175438596493" stroke="none" fill="hsla(150, 76%, 9%, 1.00)" rx="1.131578947368421"></rect><rect width="2.263157894736842" height="30.76923076923077" x="798.8684210526316" y="117.94871794871796" stroke="none" fill="hsla(150, 76%, 9%, 1.00)" rx="1.131578947368421"></rect><rect width="30.76923076923077" height="2.263157894736842" x="-15.384615384615385" y="198.8684210526316" stroke="none" fill="hsla(150, 76%, 9%, 1.00)" rx="1.131578947368421"></rect><rect width="2.263157894736842" height="30.76923076923077" x="-1.131578947368421" y="184.6153846153846" stroke="none" fill="hsla(150, 76%, 9%, 1.00)" rx="1.131578947368421"></rect><rect width="30.76923076923077" height="2.263157894736842" x="46.15384615384615" y="198.8684210526316" stroke="none" fill="hsla(150, 76%, 9%, 1.00)" rx="1.131578947368421"></rect><rect width="2.263157894736842" height="30.76923076923077" x="60.40688259109312" y="184.6153846153846" stroke="none" fill="hsla(150, 76%, 9%, 1.00)" rx="1.131578947368421"></rect><rect width="30.76923076923077" height="2.263157894736842" x="107.6923076923077" y="198.8684210526316" stroke="none" fill="hsla(150, 76%, 9%, 1.00)" rx="1.131578947368421"></rect><rect width="2.263157894736842" height="30.76923076923077" x="121.94534412955466" y="184.6153846153846" stroke="none" fill="hsla(150, 76%, 9%, 1.00)" rx="1.131578947368421"></rect><rect width="30.76923076923077" height="2.263157894736842" x="169.23076923076923" y="198.8684210526316" stroke="none" fill="hsla(150, 76%, 9%, 1.00)" rx="1.131578947368421"></rect><rect width="2.263157894736842" height="30.76923076923077" x="183.4838056680162" y="184.6153846153846" stroke="none" fill="hsla(150, 76%, 9%, 1.00)" rx="1.131578947368421"></rect><rect width="30.76923076923077" height="2.263157894736842" x="230.76923076923077" y="198.8684210526316" stroke="none" fill="hsla(150, 76%, 9%, 1.00)" rx="1.131578947368421"></rect><rect width="2.263157894736842" height="30.76923076923077" x="245.02226720647775" y="184.6153846153846" stroke="none" fill="hsla(150, 76%, 9%, 1.00)" rx="1.131578947368421"></rect><rect width="30.76923076923077" height="2.263157894736842" x="292.3076923076923" y="198.8684210526316" stroke="none" fill="hsla(150, 76%, 9%, 1.00)" rx="1.131578947368421"></rect><rect width="2.263157894736842" height="30.76923076923077" x="306.56072874493924" y="184.6153846153846" stroke="none" fill="hsla(150, 76%, 9%, 1.00)" rx="1.131578947368421"></rect><rect width="30.76923076923077" height="2.263157894736842" x="353.84615384615387" y="198.8684210526316" stroke="none" fill="hsla(150, 76%, 9%, 1.00)" rx="1.131578947368421"></rect><rect width="2.263157894736842" height="30.76923076923077" x="368.0991902834008" y="184.6153846153846" stroke="none" fill="hsla(150, 76%, 9%, 1.00)" rx="1.131578947368421"></rect><rect width="30.76923076923077" height="2.263157894736842" x="415.3846153846154" y="198.8684210526316" stroke="none" fill="hsla(150, 76%, 9%, 1.00)" rx="1.131578947368421"></rect><rect width="2.263157894736842" height="30.76923076923077" x="429.63765182186233" y="184.6153846153846" stroke="none" fill="hsla(150, 76%, 9%, 1.00)" rx="1.131578947368421"></rect><rect width="30.76923076923077" height="2.263157894736842" x="476.92307692307696" y="198.8684210526316" stroke="none" fill="hsla(150, 76%, 9%, 1.00)" rx="1.131578947368421"></rect><rect width="2.263157894736842" height="30.76923076923077" x="491.1761133603239" y="184.6153846153846" stroke="none" fill="hsla(150, 76%, 9%, 1.00)" rx="1.131578947368421"></rect><rect width="30.76923076923077" height="2.263157894736842" x="538.4615384615385" y="198.8684210526316" stroke="none" fill="hsla(150, 76%, 9%, 1.00)" rx="1.131578947368421"></rect><rect width="2.263157894736842" height="30.76923076923077" x="552.7145748987854" y="184.6153846153846" stroke="none" fill="hsla(150, 76%, 9%, 1.00)" rx="1.131578947368421"></rect><rect width="30.76923076923077" height="2.263157894736842" x="600" y="198.8684210526316" stroke="none" fill="hsla(150, 76%, 9%, 1.00)" rx="1.131578947368421"></rect><rect width="2.263157894736842" height="30.76923076923077" x="614.2530364372469" y="184.6153846153846" stroke="none" fill="hsla(150, 76%, 9%, 1.00)" rx="1.131578947368421"></rect><rect width="30.76923076923077" height="2.263157894736842" x="661.5384615384615" y="198.8684210526316" stroke="none" fill="hsla(150, 76%, 9%, 1.00)" rx="1.131578947368421"></rect><rect width="2.263157894736842" height="30.76923076923077" x="675.7914979757085" y="184.6153846153846" stroke="none" fill="hsla(150, 76%, 9%, 1.00)" rx="1.131578947368421"></rect><rect width="30.76923076923077" height="2.263157894736842" x="723.0769230769231" y="198.8684210526316" stroke="none" fill="hsla(150, 76%, 9%, 1.00)" rx="1.131578947368421"></rect><rect width="2.263157894736842" height="30.76923076923077" x="737.32995951417" y="184.6153846153846" stroke="none" fill="hsla(150, 76%, 9%, 1.00)" rx="1.131578947368421"></rect><rect width="30.76923076923077" height="2.263157894736842" x="784.6153846153846" y="198.8684210526316" stroke="none" fill="hsla(150, 76%, 9%, 1.00)" rx="1.131578947368421"></rect><rect width="2.263157894736842" height="30.76923076923077" x="798.8684210526316" y="184.6153846153846" stroke="none" fill="hsla(150, 76%, 9%, 1.00)" rx="1.131578947368421"></rect><rect width="30.76923076923077" height="2.263157894736842" x="-15.384615384615385" y="265.53508771929825" stroke="none" fill="hsla(150, 76%, 9%, 1.00)" rx="1.131578947368421"></rect><rect width="2.263157894736842" height="30.76923076923077" x="-1.131578947368421" y="251.2820512820513" stroke="none" fill="hsla(150, 76%, 9%, 1.00)" rx="1.131578947368421"></rect><rect width="30.76923076923077" height="2.263157894736842" x="46.15384615384615" y="265.53508771929825" stroke="none" fill="hsla(150, 76%, 9%, 1.00)" rx="1.131578947368421"></rect><rect width="2.263157894736842" height="30.76923076923077" x="60.40688259109312" y="251.2820512820513" stroke="none" fill="hsla(150, 76%, 9%, 1.00)" rx="1.131578947368421"></rect><rect width="30.76923076923077" height="2.263157894736842" x="107.6923076923077" y="265.53508771929825" stroke="none" fill="hsla(150, 76%, 9%, 1.00)" rx="1.131578947368421"></rect><rect width="2.263157894736842" height="30.76923076923077" x="121.94534412955466" y="251.2820512820513" stroke="none" fill="hsla(150, 76%, 9%, 1.00)" rx="1.131578947368421"></rect><rect width="30.76923076923077" height="2.263157894736842" x="169.23076923076923" y="265.53508771929825" stroke="none" fill="hsla(150, 76%, 9%, 1.00)" rx="1.131578947368421"></rect><rect width="2.263157894736842" height="30.76923076923077" x="183.4838056680162" y="251.2820512820513" stroke="none" fill="hsla(150, 76%, 9%, 1.00)" rx="1.131578947368421"></rect><rect width="30.76923076923077" height="2.263157894736842" x="230.76923076923077" y="265.53508771929825" stroke="none" fill="hsla(150, 76%, 9%, 1.00)" rx="1.131578947368421"></rect><rect width="2.263157894736842" height="30.76923076923077" x="245.02226720647775" y="251.2820512820513" stroke="none" fill="hsla(150, 76%, 9%, 1.00)" rx="1.131578947368421"></rect><rect width="30.76923076923077" height="2.263157894736842" x="292.3076923076923" y="265.53508771929825" stroke="none" fill="hsla(150, 76%, 9%, 1.00)" rx="1.131578947368421"></rect><rect width="2.263157894736842" height="30.76923076923077" x="306.56072874493924" y="251.2820512820513" stroke="none" fill="hsla(150, 76%, 9%, 1.00)" rx="1.131578947368421"></rect><rect width="30.76923076923077" height="2.263157894736842" x="353.84615384615387" y="265.53508771929825" stroke="none" fill="hsla(150, 76%, 9%, 1.00)" rx="1.131578947368421"></rect><rect width="2.263157894736842" height="30.76923076923077" x="368.0991902834008" y="251.2820512820513" stroke="none" fill="hsla(150, 76%, 9%, 1.00)" rx="1.131578947368421"></rect><rect width="30.76923076923077" height="2.263157894736842" x="415.3846153846154" y="265.53508771929825" stroke="none" fill="hsla(150, 76%, 9%, 1.00)" rx="1.131578947368421"></rect><rect width="2.263157894736842" height="30.76923076923077" x="429.63765182186233" y="251.2820512820513" stroke="none" fill="hsla(150, 76%, 9%, 1.00)" rx="1.131578947368421"></rect><rect width="30.76923076923077" height="2.263157894736842" x="476.92307692307696" y="265.53508771929825" stroke="none" fill="hsla(150, 76%, 9%, 1.00)" rx="1.131578947368421"></rect><rect width="2.263157894736842" height="30.76923076923077" x="491.1761133603239" y="251.2820512820513" stroke="none" fill="hsla(150, 76%, 9%, 1.00)" rx="1.131578947368421"></rect><rect width="30.76923076923077" height="2.263157894736842" x="538.4615384615385" y="265.53508771929825" stroke="none" fill="hsla(150, 76%, 9%, 1.00)" rx="1.131578947368421"></rect><rect width="2.263157894736842" height="30.76923076923077" x="552.7145748987854" y="251.2820512820513" stroke="none" fill="hsla(150, 76%, 9%, 1.00)" rx="1.131578947368421"></rect><rect width="30.76923076923077" height="2.263157894736842" x="600" y="265.53508771929825" stroke="none" fill="hsla(150, 76%, 9%, 1.00)" rx="1.131578947368421"></rect><rect width="2.263157894736842" height="30.76923076923077" x="614.2530364372469" y="251.2820512820513" stroke="none" fill="hsla(150, 76%, 9%, 1.00)" rx="1.131578947368421"></rect><rect width="30.76923076923077" height="2.263157894736842" x="661.5384615384615" y="265.53508771929825" stroke="none" fill="hsla(150, 76%, 9%, 1.00)" rx="1.131578947368421"></rect><rect width="2.263157894736842" height="30.76923076923077" x="675.7914979757085" y="251.2820512820513" stroke="none" fill="hsla(150, 76%, 9%, 1.00)" rx="1.131578947368421"></rect><rect width="30.76923076923077" height="2.263157894736842" x="723.0769230769231" y="265.53508771929825" stroke="none" fill="hsla(150, 76%, 9%, 1.00)" rx="1.131578947368421"></rect><rect width="2.263157894736842" height="30.76923076923077" x="737.32995951417" y="251.2820512820513" stroke="none" fill="hsla(150, 76%, 9%, 1.00)" rx="1.131578947368421"></rect><rect width="30.76923076923077" height="2.263157894736842" x="784.6153846153846" y="265.53508771929825" stroke="none" fill="hsla(150, 76%, 9%, 1.00)" rx="1.131578947368421"></rect><rect width="2.263157894736842" height="30.76923076923077" x="798.8684210526316" y="251.2820512820513" stroke="none" fill="hsla(150, 76%, 9%, 1.00)" rx="1.131578947368421"></rect><rect width="30.76923076923077" height="2.263157894736842" x="-15.384615384615385" y="332.20175438596493" stroke="none" fill="hsla(150, 76%, 9%, 1.00)" rx="1.131578947368421"></rect><rect width="2.263157894736842" height="30.76923076923077" x="-1.131578947368421" y="317.948717948718" stroke="none" fill="hsla(150, 76%, 9%, 1.00)" rx="1.131578947368421"></rect><rect width="30.76923076923077" height="2.263157894736842" x="46.15384615384615" y="332.20175438596493" stroke="none" fill="hsla(150, 76%, 9%, 1.00)" rx="1.131578947368421"></rect><rect width="2.263157894736842" height="30.76923076923077" x="60.40688259109312" y="317.948717948718" stroke="none" fill="hsla(150, 76%, 9%, 1.00)" rx="1.131578947368421"></rect><rect width="30.76923076923077" height="2.263157894736842" x="107.6923076923077" y="332.20175438596493" stroke="none" fill="hsla(150, 76%, 9%, 1.00)" rx="1.131578947368421"></rect><rect width="2.263157894736842" height="30.76923076923077" x="121.94534412955466" y="317.948717948718" stroke="none" fill="hsla(150, 76%, 9%, 1.00)" rx="1.131578947368421"></rect><rect width="30.76923076923077" height="2.263157894736842" x="169.23076923076923" y="332.20175438596493" stroke="none" fill="hsla(150, 76%, 9%, 1.00)" rx="1.131578947368421"></rect><rect width="2.263157894736842" height="30.76923076923077" x="183.4838056680162" y="317.948717948718" stroke="none" fill="hsla(150, 76%, 9%, 1.00)" rx="1.131578947368421"></rect><rect width="30.76923076923077" height="2.263157894736842" x="230.76923076923077" y="332.20175438596493" stroke="none" fill="hsla(150, 76%, 9%, 1.00)" rx="1.131578947368421"></rect><rect width="2.263157894736842" height="30.76923076923077" x="245.02226720647775" y="317.948717948718" stroke="none" fill="hsla(150, 76%, 9%, 1.00)" rx="1.131578947368421"></rect><rect width="30.76923076923077" height="2.263157894736842" x="292.3076923076923" y="332.20175438596493" stroke="none" fill="hsla(150, 76%, 9%, 1.00)" rx="1.131578947368421"></rect><rect width="2.263157894736842" height="30.76923076923077" x="306.56072874493924" y="317.948717948718" stroke="none" fill="hsla(150, 76%, 9%, 1.00)" rx="1.131578947368421"></rect><rect width="30.76923076923077" height="2.263157894736842" x="353.84615384615387" y="332.20175438596493" stroke="none" fill="hsla(150, 76%, 9%, 1.00)" rx="1.131578947368421"></rect><rect width="2.263157894736842" height="30.76923076923077" x="368.0991902834008" y="317.948717948718" stroke="none" fill="hsla(150, 76%, 9%, 1.00)" rx="1.131578947368421"></rect><rect width="30.76923076923077" height="2.263157894736842" x="415.3846153846154" y="332.20175438596493" stroke="none" fill="hsla(150, 76%, 9%, 1.00)" rx="1.131578947368421"></rect><rect width="2.263157894736842" height="30.76923076923077" x="429.63765182186233" y="317.948717948718" stroke="none" fill="hsla(150, 76%, 9%, 1.00)" rx="1.131578947368421"></rect><rect width="30.76923076923077" height="2.263157894736842" x="476.92307692307696" y="332.20175438596493" stroke="none" fill="hsla(150, 76%, 9%, 1.00)" rx="1.131578947368421"></rect><rect width="2.263157894736842" height="30.76923076923077" x="491.1761133603239" y="317.948717948718" stroke="none" fill="hsla(150, 76%, 9%, 1.00)" rx="1.131578947368421"></rect><rect width="30.76923076923077" height="2.263157894736842" x="538.4615384615385" y="332.20175438596493" stroke="none" fill="hsla(150, 76%, 9%, 1.00)" rx="1.131578947368421"></rect><rect width="2.263157894736842" height="30.76923076923077" x="552.7145748987854" y="317.948717948718" stroke="none" fill="hsla(150, 76%, 9%, 1.00)" rx="1.131578947368421"></rect><rect width="30.76923076923077" height="2.263157894736842" x="600" y="332.20175438596493" stroke="none" fill="hsla(150, 76%, 9%, 1.00)" rx="1.131578947368421"></rect><rect width="2.263157894736842" height="30.76923076923077" x="614.2530364372469" y="317.948717948718" stroke="none" fill="hsla(150, 76%, 9%, 1.00)" rx="1.131578947368421"></rect><rect width="30.76923076923077" height="2.263157894736842" x="661.5384615384615" y="332.20175438596493" stroke="none" fill="hsla(150, 76%, 9%, 1.00)" rx="1.131578947368421"></rect><rect width="2.263157894736842" height="30.76923076923077" x="675.7914979757085" y="317.948717948718" stroke="none" fill="hsla(150, 76%, 9%, 1.00)" rx="1.131578947368421"></rect><rect width="30.76923076923077" height="2.263157894736842" x="723.0769230769231" y="332.20175438596493" stroke="none" fill="hsla(150, 76%, 9%, 1.00)" rx="1.131578947368421"></rect><rect width="2.263157894736842" height="30.76923076923077" x="737.32995951417" y="317.948717948718" stroke="none" fill="hsla(150, 76%, 9%, 1.00)" rx="1.131578947368421"></rect><rect width="30.76923076923077" height="2.263157894736842" x="784.6153846153846" y="332.20175438596493" stroke="none" fill="hsla(150, 76%, 9%, 1.00)" rx="1.131578947368421"></rect><rect width="2.263157894736842" height="30.76923076923077" x="798.8684210526316" y="317.948717948718" stroke="none" fill="hsla(150, 76%, 9%, 1.00)" rx="1.131578947368421"></rect><rect width="30.76923076923077" height="2.263157894736842" x="-15.384615384615385" y="398.8684210526316" stroke="none" fill="hsla(150, 76%, 9%, 1.00)" rx="1.131578947368421"></rect><rect width="2.263157894736842" height="30.76923076923077" x="-1.131578947368421" y="384.6153846153847" stroke="none" fill="hsla(150, 76%, 9%, 1.00)" rx="1.131578947368421"></rect><rect width="30.76923076923077" height="2.263157894736842" x="46.15384615384615" y="398.8684210526316" stroke="none" fill="hsla(150, 76%, 9%, 1.00)" rx="1.131578947368421"></rect><rect width="2.263157894736842" height="30.76923076923077" x="60.40688259109312" y="384.6153846153847" stroke="none" fill="hsla(150, 76%, 9%, 1.00)" rx="1.131578947368421"></rect><rect width="30.76923076923077" height="2.263157894736842" x="107.6923076923077" y="398.8684210526316" stroke="none" fill="hsla(150, 76%, 9%, 1.00)" rx="1.131578947368421"></rect><rect width="2.263157894736842" height="30.76923076923077" x="121.94534412955466" y="384.6153846153847" stroke="none" fill="hsla(150, 76%, 9%, 1.00)" rx="1.131578947368421"></rect><rect width="30.76923076923077" height="2.263157894736842" x="169.23076923076923" y="398.8684210526316" stroke="none" fill="hsla(150, 76%, 9%, 1.00)" rx="1.131578947368421"></rect><rect width="2.263157894736842" height="30.76923076923077" x="183.4838056680162" y="384.6153846153847" stroke="none" fill="hsla(150, 76%, 9%, 1.00)" rx="1.131578947368421"></rect><rect width="30.76923076923077" height="2.263157894736842" x="230.76923076923077" y="398.8684210526316" stroke="none" fill="hsla(150, 76%, 9%, 1.00)" rx="1.131578947368421"></rect><rect width="2.263157894736842" height="30.76923076923077" x="245.02226720647775" y="384.6153846153847" stroke="none" fill="hsla(150, 76%, 9%, 1.00)" rx="1.131578947368421"></rect><rect width="30.76923076923077" height="2.263157894736842" x="292.3076923076923" y="398.8684210526316" stroke="none" fill="hsla(150, 76%, 9%, 1.00)" rx="1.131578947368421"></rect><rect width="2.263157894736842" height="30.76923076923077" x="306.56072874493924" y="384.6153846153847" stroke="none" fill="hsla(150, 76%, 9%, 1.00)" rx="1.131578947368421"></rect><rect width="30.76923076923077" height="2.263157894736842" x="353.84615384615387" y="398.8684210526316" stroke="none" fill="hsla(150, 76%, 9%, 1.00)" rx="1.131578947368421"></rect><rect width="2.263157894736842" height="30.76923076923077" x="368.0991902834008" y="384.6153846153847" stroke="none" fill="hsla(150, 76%, 9%, 1.00)" rx="1.131578947368421"></rect><rect width="30.76923076923077" height="2.263157894736842" x="415.3846153846154" y="398.8684210526316" stroke="none" fill="hsla(150, 76%, 9%, 1.00)" rx="1.131578947368421"></rect><rect width="2.263157894736842" height="30.76923076923077" x="429.63765182186233" y="384.6153846153847" stroke="none" fill="hsla(150, 76%, 9%, 1.00)" rx="1.131578947368421"></rect><rect width="30.76923076923077" height="2.263157894736842" x="476.92307692307696" y="398.8684210526316" stroke="none" fill="hsla(150, 76%, 9%, 1.00)" rx="1.131578947368421"></rect><rect width="2.263157894736842" height="30.76923076923077" x="491.1761133603239" y="384.6153846153847" stroke="none" fill="hsla(150, 76%, 9%, 1.00)" rx="1.131578947368421"></rect><rect width="30.76923076923077" height="2.263157894736842" x="538.4615384615385" y="398.8684210526316" stroke="none" fill="hsla(150, 76%, 9%, 1.00)" rx="1.131578947368421"></rect><rect width="2.263157894736842" height="30.76923076923077" x="552.7145748987854" y="384.6153846153847" stroke="none" fill="hsla(150, 76%, 9%, 1.00)" rx="1.131578947368421"></rect><rect width="30.76923076923077" height="2.263157894736842" x="600" y="398.8684210526316" stroke="none" fill="hsla(150, 76%, 9%, 1.00)" rx="1.131578947368421"></rect><rect width="2.263157894736842" height="30.76923076923077" x="614.2530364372469" y="384.6153846153847" stroke="none" fill="hsla(150, 76%, 9%, 1.00)" rx="1.131578947368421"></rect><rect width="30.76923076923077" height="2.263157894736842" x="661.5384615384615" y="398.8684210526316" stroke="none" fill="hsla(150, 76%, 9%, 1.00)" rx="1.131578947368421"></rect><rect width="2.263157894736842" height="30.76923076923077" x="675.7914979757085" y="384.6153846153847" stroke="none" fill="hsla(150, 76%, 9%, 1.00)" rx="1.131578947368421"></rect><rect width="30.76923076923077" height="2.263157894736842" x="723.0769230769231" y="398.8684210526316" stroke="none" fill="hsla(150, 76%, 9%, 1.00)" rx="1.131578947368421"></rect><rect width="2.263157894736842" height="30.76923076923077" x="737.32995951417" y="384.6153846153847" stroke="none" fill="hsla(150, 76%, 9%, 1.00)" rx="1.131578947368421"></rect><rect width="30.76923076923077" height="2.263157894736842" x="784.6153846153846" y="398.8684210526316" stroke="none" fill="hsla(150, 76%, 9%, 1.00)" rx="1.131578947368421"></rect><rect width="2.263157894736842" height="30.76923076923077" x="798.8684210526316" y="384.6153846153847" stroke="none" fill="hsla(150, 76%, 9%, 1.00)" rx="1.131578947368421"></rect><rect width="30.76923076923077" height="2.263157894736842" x="-15.384615384615385" y="465.5350877192983" stroke="none" fill="hsla(150, 76%, 9%, 1.00)" rx="1.131578947368421"></rect><rect width="2.263157894736842" height="30.76923076923077" x="-1.131578947368421" y="451.2820512820514" stroke="none" fill="hsla(150, 76%, 9%, 1.00)" rx="1.131578947368421"></rect><rect width="30.76923076923077" height="2.263157894736842" x="46.15384615384615" y="465.5350877192983" stroke="none" fill="hsla(150, 76%, 9%, 1.00)" rx="1.131578947368421"></rect><rect width="2.263157894736842" height="30.76923076923077" x="60.40688259109312" y="451.2820512820514" stroke="none" fill="hsla(150, 76%, 9%, 1.00)" rx="1.131578947368421"></rect><rect width="30.76923076923077" height="2.263157894736842" x="107.6923076923077" y="465.5350877192983" stroke="none" fill="hsla(150, 76%, 9%, 1.00)" rx="1.131578947368421"></rect><rect width="2.263157894736842" height="30.76923076923077" x="121.94534412955466" y="451.2820512820514" stroke="none" fill="hsla(150, 76%, 9%, 1.00)" rx="1.131578947368421"></rect><rect width="30.76923076923077" height="2.263157894736842" x="169.23076923076923" y="465.5350877192983" stroke="none" fill="hsla(150, 76%, 9%, 1.00)" rx="1.131578947368421"></rect><rect width="2.263157894736842" height="30.76923076923077" x="183.4838056680162" y="451.2820512820514" stroke="none" fill="hsla(150, 76%, 9%, 1.00)" rx="1.131578947368421"></rect><rect width="30.76923076923077" height="2.263157894736842" x="230.76923076923077" y="465.5350877192983" stroke="none" fill="hsla(150, 76%, 9%, 1.00)" rx="1.131578947368421"></rect><rect width="2.263157894736842" height="30.76923076923077" x="245.02226720647775" y="451.2820512820514" stroke="none" fill="hsla(150, 76%, 9%, 1.00)" rx="1.131578947368421"></rect><rect width="30.76923076923077" height="2.263157894736842" x="292.3076923076923" y="465.5350877192983" stroke="none" fill="hsla(150, 76%, 9%, 1.00)" rx="1.131578947368421"></rect><rect width="2.263157894736842" height="30.76923076923077" x="306.56072874493924" y="451.2820512820514" stroke="none" fill="hsla(150, 76%, 9%, 1.00)" rx="1.131578947368421"></rect><rect width="30.76923076923077" height="2.263157894736842" x="353.84615384615387" y="465.5350877192983" stroke="none" fill="hsla(150, 76%, 9%, 1.00)" rx="1.131578947368421"></rect><rect width="2.263157894736842" height="30.76923076923077" x="368.0991902834008" y="451.2820512820514" stroke="none" fill="hsla(150, 76%, 9%, 1.00)" rx="1.131578947368421"></rect><rect width="30.76923076923077" height="2.263157894736842" x="415.3846153846154" y="465.5350877192983" stroke="none" fill="hsla(150, 76%, 9%, 1.00)" rx="1.131578947368421"></rect><rect width="2.263157894736842" height="30.76923076923077" x="429.63765182186233" y="451.2820512820514" stroke="none" fill="hsla(150, 76%, 9%, 1.00)" rx="1.131578947368421"></rect><rect width="30.76923076923077" height="2.263157894736842" x="476.92307692307696" y="465.5350877192983" stroke="none" fill="hsla(150, 76%, 9%, 1.00)" rx="1.131578947368421"></rect><rect width="2.263157894736842" height="30.76923076923077" x="491.1761133603239" y="451.2820512820514" stroke="none" fill="hsla(150, 76%, 9%, 1.00)" rx="1.131578947368421"></rect><rect width="30.76923076923077" height="2.263157894736842" x="538.4615384615385" y="465.5350877192983" stroke="none" fill="hsla(150, 76%, 9%, 1.00)" rx="1.131578947368421"></rect><rect width="2.263157894736842" height="30.76923076923077" x="552.7145748987854" y="451.2820512820514" stroke="none" fill="hsla(150, 76%, 9%, 1.00)" rx="1.131578947368421"></rect><rect width="30.76923076923077" height="2.263157894736842" x="600" y="465.5350877192983" stroke="none" fill="hsla(150, 76%, 9%, 1.00)" rx="1.131578947368421"></rect><rect width="2.263157894736842" height="30.76923076923077" x="614.2530364372469" y="451.2820512820514" stroke="none" fill="hsla(150, 76%, 9%, 1.00)" rx="1.131578947368421"></rect><rect width="30.76923076923077" height="2.263157894736842" x="661.5384615384615" y="465.5350877192983" stroke="none" fill="hsla(150, 76%, 9%, 1.00)" rx="1.131578947368421"></rect><rect width="2.263157894736842" height="30.76923076923077" x="675.7914979757085" y="451.2820512820514" stroke="none" fill="hsla(150, 76%, 9%, 1.00)" rx="1.131578947368421"></rect><rect width="30.76923076923077" height="2.263157894736842" x="723.0769230769231" y="465.5350877192983" stroke="none" fill="hsla(150, 76%, 9%, 1.00)" rx="1.131578947368421"></rect><rect width="2.263157894736842" height="30.76923076923077" x="737.32995951417" y="451.2820512820514" stroke="none" fill="hsla(150, 76%, 9%, 1.00)" rx="1.131578947368421"></rect><rect width="30.76923076923077" height="2.263157894736842" x="784.6153846153846" y="465.5350877192983" stroke="none" fill="hsla(150, 76%, 9%, 1.00)" rx="1.131578947368421"></rect><rect width="2.263157894736842" height="30.76923076923077" x="798.8684210526316" y="451.2820512820514" stroke="none" fill="hsla(150, 76%, 9%, 1.00)" rx="1.131578947368421"></rect><rect width="30.76923076923077" height="2.263157894736842" x="-15.384615384615385" y="532.2017543859649" stroke="none" fill="hsla(150, 76%, 9%, 1.00)" rx="1.131578947368421"></rect><rect width="2.263157894736842" height="30.76923076923077" x="-1.131578947368421" y="517.948717948718" stroke="none" fill="hsla(150, 76%, 9%, 1.00)" rx="1.131578947368421"></rect><rect width="30.76923076923077" height="2.263157894736842" x="46.15384615384615" y="532.2017543859649" stroke="none" fill="hsla(150, 76%, 9%, 1.00)" rx="1.131578947368421"></rect><rect width="2.263157894736842" height="30.76923076923077" x="60.40688259109312" y="517.948717948718" stroke="none" fill="hsla(150, 76%, 9%, 1.00)" rx="1.131578947368421"></rect><rect width="30.76923076923077" height="2.263157894736842" x="107.6923076923077" y="532.2017543859649" stroke="none" fill="hsla(150, 76%, 9%, 1.00)" rx="1.131578947368421"></rect><rect width="2.263157894736842" height="30.76923076923077" x="121.94534412955466" y="517.948717948718" stroke="none" fill="hsla(150, 76%, 9%, 1.00)" rx="1.131578947368421"></rect><rect width="30.76923076923077" height="2.263157894736842" x="169.23076923076923" y="532.2017543859649" stroke="none" fill="hsla(150, 76%, 9%, 1.00)" rx="1.131578947368421"></rect><rect width="2.263157894736842" height="30.76923076923077" x="183.4838056680162" y="517.948717948718" stroke="none" fill="hsla(150, 76%, 9%, 1.00)" rx="1.131578947368421"></rect><rect width="30.76923076923077" height="2.263157894736842" x="230.76923076923077" y="532.2017543859649" stroke="none" fill="hsla(150, 76%, 9%, 1.00)" rx="1.131578947368421"></rect><rect width="2.263157894736842" height="30.76923076923077" x="245.02226720647775" y="517.948717948718" stroke="none" fill="hsla(150, 76%, 9%, 1.00)" rx="1.131578947368421"></rect><rect width="30.76923076923077" height="2.263157894736842" x="292.3076923076923" y="532.2017543859649" stroke="none" fill="hsla(150, 76%, 9%, 1.00)" rx="1.131578947368421"></rect><rect width="2.263157894736842" height="30.76923076923077" x="306.56072874493924" y="517.948717948718" stroke="none" fill="hsla(150, 76%, 9%, 1.00)" rx="1.131578947368421"></rect><rect width="30.76923076923077" height="2.263157894736842" x="353.84615384615387" y="532.2017543859649" stroke="none" fill="hsla(150, 76%, 9%, 1.00)" rx="1.131578947368421"></rect><rect width="2.263157894736842" height="30.76923076923077" x="368.0991902834008" y="517.948717948718" stroke="none" fill="hsla(150, 76%, 9%, 1.00)" rx="1.131578947368421"></rect><rect width="30.76923076923077" height="2.263157894736842" x="415.3846153846154" y="532.2017543859649" stroke="none" fill="hsla(150, 76%, 9%, 1.00)" rx="1.131578947368421"></rect><rect width="2.263157894736842" height="30.76923076923077" x="429.63765182186233" y="517.948717948718" stroke="none" fill="hsla(150, 76%, 9%, 1.00)" rx="1.131578947368421"></rect><rect width="30.76923076923077" height="2.263157894736842" x="476.92307692307696" y="532.2017543859649" stroke="none" fill="hsla(150, 76%, 9%, 1.00)" rx="1.131578947368421"></rect><rect width="2.263157894736842" height="30.76923076923077" x="491.1761133603239" y="517.948717948718" stroke="none" fill="hsla(150, 76%, 9%, 1.00)" rx="1.131578947368421"></rect><rect width="30.76923076923077" height="2.263157894736842" x="538.4615384615385" y="532.2017543859649" stroke="none" fill="hsla(150, 76%, 9%, 1.00)" rx="1.131578947368421"></rect><rect width="2.263157894736842" height="30.76923076923077" x="552.7145748987854" y="517.948717948718" stroke="none" fill="hsla(150, 76%, 9%, 1.00)" rx="1.131578947368421"></rect><rect width="30.76923076923077" height="2.263157894736842" x="600" y="532.2017543859649" stroke="none" fill="hsla(150, 76%, 9%, 1.00)" rx="1.131578947368421"></rect><rect width="2.263157894736842" height="30.76923076923077" x="614.2530364372469" y="517.948717948718" stroke="none" fill="hsla(150, 76%, 9%, 1.00)" rx="1.131578947368421"></rect><rect width="30.76923076923077" height="2.263157894736842" x="661.5384615384615" y="532.2017543859649" stroke="none" fill="hsla(150, 76%, 9%, 1.00)" rx="1.131578947368421"></rect><rect width="2.263157894736842" height="30.76923076923077" x="675.7914979757085" y="517.948717948718" stroke="none" fill="hsla(150, 76%, 9%, 1.00)" rx="1.131578947368421"></rect><rect width="30.76923076923077" height="2.263157894736842" x="723.0769230769231" y="532.2017543859649" stroke="none" fill="hsla(150, 76%, 9%, 1.00)" rx="1.131578947368421"></rect><rect width="2.263157894736842" height="30.76923076923077" x="737.32995951417" y="517.948717948718" stroke="none" fill="hsla(150, 76%, 9%, 1.00)" rx="1.131578947368421"></rect><rect width="30.76923076923077" height="2.263157894736842" x="784.6153846153846" y="532.2017543859649" stroke="none" fill="hsla(150, 76%, 9%, 1.00)" rx="1.131578947368421"></rect><rect width="2.263157894736842" height="30.76923076923077" x="798.8684210526316" y="517.948717948718" stroke="none" fill="hsla(150, 76%, 9%, 1.00)" rx="1.131578947368421"></rect><rect width="30.76923076923077" height="2.263157894736842" x="-15.384615384615385" y="598.8684210526316" stroke="none" fill="hsla(150, 76%, 9%, 1.00)" rx="1.131578947368421"></rect><rect width="2.263157894736842" height="30.76923076923077" x="-1.131578947368421" y="584.6153846153846" stroke="none" fill="hsla(150, 76%, 9%, 1.00)" rx="1.131578947368421"></rect><rect width="30.76923076923077" height="2.263157894736842" x="46.15384615384615" y="598.8684210526316" stroke="none" fill="hsla(150, 76%, 9%, 1.00)" rx="1.131578947368421"></rect><rect width="2.263157894736842" height="30.76923076923077" x="60.40688259109312" y="584.6153846153846" stroke="none" fill="hsla(150, 76%, 9%, 1.00)" rx="1.131578947368421"></rect><rect width="30.76923076923077" height="2.263157894736842" x="107.6923076923077" y="598.8684210526316" stroke="none" fill="hsla(150, 76%, 9%, 1.00)" rx="1.131578947368421"></rect><rect width="2.263157894736842" height="30.76923076923077" x="121.94534412955466" y="584.6153846153846" stroke="none" fill="hsla(150, 76%, 9%, 1.00)" rx="1.131578947368421"></rect><rect width="30.76923076923077" height="2.263157894736842" x="169.23076923076923" y="598.8684210526316" stroke="none" fill="hsla(150, 76%, 9%, 1.00)" rx="1.131578947368421"></rect><rect width="2.263157894736842" height="30.76923076923077" x="183.4838056680162" y="584.6153846153846" stroke="none" fill="hsla(150, 76%, 9%, 1.00)" rx="1.131578947368421"></rect><rect width="30.76923076923077" height="2.263157894736842" x="230.76923076923077" y="598.8684210526316" stroke="none" fill="hsla(150, 76%, 9%, 1.00)" rx="1.131578947368421"></rect><rect width="2.263157894736842" height="30.76923076923077" x="245.02226720647775" y="584.6153846153846" stroke="none" fill="hsla(150, 76%, 9%, 1.00)" rx="1.131578947368421"></rect><rect width="30.76923076923077" height="2.263157894736842" x="292.3076923076923" y="598.8684210526316" stroke="none" fill="hsla(150, 76%, 9%, 1.00)" rx="1.131578947368421"></rect><rect width="2.263157894736842" height="30.76923076923077" x="306.56072874493924" y="584.6153846153846" stroke="none" fill="hsla(150, 76%, 9%, 1.00)" rx="1.131578947368421"></rect><rect width="30.76923076923077" height="2.263157894736842" x="353.84615384615387" y="598.8684210526316" stroke="none" fill="hsla(150, 76%, 9%, 1.00)" rx="1.131578947368421"></rect><rect width="2.263157894736842" height="30.76923076923077" x="368.0991902834008" y="584.6153846153846" stroke="none" fill="hsla(150, 76%, 9%, 1.00)" rx="1.131578947368421"></rect><rect width="30.76923076923077" height="2.263157894736842" x="415.3846153846154" y="598.8684210526316" stroke="none" fill="hsla(150, 76%, 9%, 1.00)" rx="1.131578947368421"></rect><rect width="2.263157894736842" height="30.76923076923077" x="429.63765182186233" y="584.6153846153846" stroke="none" fill="hsla(150, 76%, 9%, 1.00)" rx="1.131578947368421"></rect><rect width="30.76923076923077" height="2.263157894736842" x="476.92307692307696" y="598.8684210526316" stroke="none" fill="hsla(150, 76%, 9%, 1.00)" rx="1.131578947368421"></rect><rect width="2.263157894736842" height="30.76923076923077" x="491.1761133603239" y="584.6153846153846" stroke="none" fill="hsla(150, 76%, 9%, 1.00)" rx="1.131578947368421"></rect><rect width="30.76923076923077" height="2.263157894736842" x="538.4615384615385" y="598.8684210526316" stroke="none" fill="hsla(150, 76%, 9%, 1.00)" rx="1.131578947368421"></rect><rect width="2.263157894736842" height="30.76923076923077" x="552.7145748987854" y="584.6153846153846" stroke="none" fill="hsla(150, 76%, 9%, 1.00)" rx="1.131578947368421"></rect><rect width="30.76923076923077" height="2.263157894736842" x="600" y="598.8684210526316" stroke="none" fill="hsla(150, 76%, 9%, 1.00)" rx="1.131578947368421"></rect><rect width="2.263157894736842" height="30.76923076923077" x="614.2530364372469" y="584.6153846153846" stroke="none" fill="hsla(150, 76%, 9%, 1.00)" rx="1.131578947368421"></rect><rect width="30.76923076923077" height="2.263157894736842" x="661.5384615384615" y="598.8684210526316" stroke="none" fill="hsla(150, 76%, 9%, 1.00)" rx="1.131578947368421"></rect><rect width="2.263157894736842" height="30.76923076923077" x="675.7914979757085" y="584.6153846153846" stroke="none" fill="hsla(150, 76%, 9%, 1.00)" rx="1.131578947368421"></rect><rect width="30.76923076923077" height="2.263157894736842" x="723.0769230769231" y="598.8684210526316" stroke="none" fill="hsla(150, 76%, 9%, 1.00)" rx="1.131578947368421"></rect><rect width="2.263157894736842" height="30.76923076923077" x="737.32995951417" y="584.6153846153846" stroke="none" fill="hsla(150, 76%, 9%, 1.00)" rx="1.131578947368421"></rect><rect width="30.76923076923077" height="2.263157894736842" x="784.6153846153846" y="598.8684210526316" stroke="none" fill="hsla(150, 76%, 9%, 1.00)" rx="1.131578947368421"></rect><rect width="2.263157894736842" height="30.76923076923077" x="798.8684210526316" y="584.6153846153846" stroke="none" fill="hsla(150, 76%, 9%, 1.00)" rx="1.131578947368421"></rect><rect width="30.76923076923077" height="2.263157894736842" x="-15.384615384615385" y="665.5350877192982" stroke="none" fill="hsla(150, 76%, 9%, 1.00)" rx="1.131578947368421"></rect><rect width="2.263157894736842" height="30.76923076923077" x="-1.131578947368421" y="651.2820512820513" stroke="none" fill="hsla(150, 76%, 9%, 1.00)" rx="1.131578947368421"></rect><rect width="30.76923076923077" height="2.263157894736842" x="46.15384615384615" y="665.5350877192982" stroke="none" fill="hsla(150, 76%, 9%, 1.00)" rx="1.131578947368421"></rect><rect width="2.263157894736842" height="30.76923076923077" x="60.40688259109312" y="651.2820512820513" stroke="none" fill="hsla(150, 76%, 9%, 1.00)" rx="1.131578947368421"></rect><rect width="30.76923076923077" height="2.263157894736842" x="107.6923076923077" y="665.5350877192982" stroke="none" fill="hsla(150, 76%, 9%, 1.00)" rx="1.131578947368421"></rect><rect width="2.263157894736842" height="30.76923076923077" x="121.94534412955466" y="651.2820512820513" stroke="none" fill="hsla(150, 76%, 9%, 1.00)" rx="1.131578947368421"></rect><rect width="30.76923076923077" height="2.263157894736842" x="169.23076923076923" y="665.5350877192982" stroke="none" fill="hsla(150, 76%, 9%, 1.00)" rx="1.131578947368421"></rect><rect width="2.263157894736842" height="30.76923076923077" x="183.4838056680162" y="651.2820512820513" stroke="none" fill="hsla(150, 76%, 9%, 1.00)" rx="1.131578947368421"></rect><rect width="30.76923076923077" height="2.263157894736842" x="230.76923076923077" y="665.5350877192982" stroke="none" fill="hsla(150, 76%, 9%, 1.00)" rx="1.131578947368421"></rect><rect width="2.263157894736842" height="30.76923076923077" x="245.02226720647775" y="651.2820512820513" stroke="none" fill="hsla(150, 76%, 9%, 1.00)" rx="1.131578947368421"></rect><rect width="30.76923076923077" height="2.263157894736842" x="292.3076923076923" y="665.5350877192982" stroke="none" fill="hsla(150, 76%, 9%, 1.00)" rx="1.131578947368421"></rect><rect width="2.263157894736842" height="30.76923076923077" x="306.56072874493924" y="651.2820512820513" stroke="none" fill="hsla(150, 76%, 9%, 1.00)" rx="1.131578947368421"></rect><rect width="30.76923076923077" height="2.263157894736842" x="353.84615384615387" y="665.5350877192982" stroke="none" fill="hsla(150, 76%, 9%, 1.00)" rx="1.131578947368421"></rect><rect width="2.263157894736842" height="30.76923076923077" x="368.0991902834008" y="651.2820512820513" stroke="none" fill="hsla(150, 76%, 9%, 1.00)" rx="1.131578947368421"></rect><rect width="30.76923076923077" height="2.263157894736842" x="415.3846153846154" y="665.5350877192982" stroke="none" fill="hsla(150, 76%, 9%, 1.00)" rx="1.131578947368421"></rect><rect width="2.263157894736842" height="30.76923076923077" x="429.63765182186233" y="651.2820512820513" stroke="none" fill="hsla(150, 76%, 9%, 1.00)" rx="1.131578947368421"></rect><rect width="30.76923076923077" height="2.263157894736842" x="476.92307692307696" y="665.5350877192982" stroke="none" fill="hsla(150, 76%, 9%, 1.00)" rx="1.131578947368421"></rect><rect width="2.263157894736842" height="30.76923076923077" x="491.1761133603239" y="651.2820512820513" stroke="none" fill="hsla(150, 76%, 9%, 1.00)" rx="1.131578947368421"></rect><rect width="30.76923076923077" height="2.263157894736842" x="538.4615384615385" y="665.5350877192982" stroke="none" fill="hsla(150, 76%, 9%, 1.00)" rx="1.131578947368421"></rect><rect width="2.263157894736842" height="30.76923076923077" x="552.7145748987854" y="651.2820512820513" stroke="none" fill="hsla(150, 76%, 9%, 1.00)" rx="1.131578947368421"></rect><rect width="30.76923076923077" height="2.263157894736842" x="600" y="665.5350877192982" stroke="none" fill="hsla(150, 76%, 9%, 1.00)" rx="1.131578947368421"></rect><rect width="2.263157894736842" height="30.76923076923077" x="614.2530364372469" y="651.2820512820513" stroke="none" fill="hsla(150, 76%, 9%, 1.00)" rx="1.131578947368421"></rect><rect width="30.76923076923077" height="2.263157894736842" x="661.5384615384615" y="665.5350877192982" stroke="none" fill="hsla(150, 76%, 9%, 1.00)" rx="1.131578947368421"></rect><rect width="2.263157894736842" height="30.76923076923077" x="675.7914979757085" y="651.2820512820513" stroke="none" fill="hsla(150, 76%, 9%, 1.00)" rx="1.131578947368421"></rect><rect width="30.76923076923077" height="2.263157894736842" x="723.0769230769231" y="665.5350877192982" stroke="none" fill="hsla(150, 76%, 9%, 1.00)" rx="1.131578947368421"></rect><rect width="2.263157894736842" height="30.76923076923077" x="737.32995951417" y="651.2820512820513" stroke="none" fill="hsla(150, 76%, 9%, 1.00)" rx="1.131578947368421"></rect><rect width="30.76923076923077" height="2.263157894736842" x="784.6153846153846" y="665.5350877192982" stroke="none" fill="hsla(150, 76%, 9%, 1.00)" rx="1.131578947368421"></rect><rect width="2.263157894736842" height="30.76923076923077" x="798.8684210526316" y="651.2820512820513" stroke="none" fill="hsla(150, 76%, 9%, 1.00)" rx="1.131578947368421"></rect><rect width="30.76923076923077" height="2.263157894736842" x="-15.384615384615385" y="732.2017543859648" stroke="none" fill="hsla(150, 76%, 9%, 1.00)" rx="1.131578947368421"></rect><rect width="2.263157894736842" height="30.76923076923077" x="-1.131578947368421" y="717.9487179487179" stroke="none" fill="hsla(150, 76%, 9%, 1.00)" rx="1.131578947368421"></rect><rect width="30.76923076923077" height="2.263157894736842" x="46.15384615384615" y="732.2017543859648" stroke="none" fill="hsla(150, 76%, 9%, 1.00)" rx="1.131578947368421"></rect><rect width="2.263157894736842" height="30.76923076923077" x="60.40688259109312" y="717.9487179487179" stroke="none" fill="hsla(150, 76%, 9%, 1.00)" rx="1.131578947368421"></rect><rect width="30.76923076923077" height="2.263157894736842" x="107.6923076923077" y="732.2017543859648" stroke="none" fill="hsla(150, 76%, 9%, 1.00)" rx="1.131578947368421"></rect><rect width="2.263157894736842" height="30.76923076923077" x="121.94534412955466" y="717.9487179487179" stroke="none" fill="hsla(150, 76%, 9%, 1.00)" rx="1.131578947368421"></rect><rect width="30.76923076923077" height="2.263157894736842" x="169.23076923076923" y="732.2017543859648" stroke="none" fill="hsla(150, 76%, 9%, 1.00)" rx="1.131578947368421"></rect><rect width="2.263157894736842" height="30.76923076923077" x="183.4838056680162" y="717.9487179487179" stroke="none" fill="hsla(150, 76%, 9%, 1.00)" rx="1.131578947368421"></rect><rect width="30.76923076923077" height="2.263157894736842" x="230.76923076923077" y="732.2017543859648" stroke="none" fill="hsla(150, 76%, 9%, 1.00)" rx="1.131578947368421"></rect><rect width="2.263157894736842" height="30.76923076923077" x="245.02226720647775" y="717.9487179487179" stroke="none" fill="hsla(150, 76%, 9%, 1.00)" rx="1.131578947368421"></rect><rect width="30.76923076923077" height="2.263157894736842" x="292.3076923076923" y="732.2017543859648" stroke="none" fill="hsla(150, 76%, 9%, 1.00)" rx="1.131578947368421"></rect><rect width="2.263157894736842" height="30.76923076923077" x="306.56072874493924" y="717.9487179487179" stroke="none" fill="hsla(150, 76%, 9%, 1.00)" rx="1.131578947368421"></rect><rect width="30.76923076923077" height="2.263157894736842" x="353.84615384615387" y="732.2017543859648" stroke="none" fill="hsla(150, 76%, 9%, 1.00)" rx="1.131578947368421"></rect><rect width="2.263157894736842" height="30.76923076923077" x="368.0991902834008" y="717.9487179487179" stroke="none" fill="hsla(150, 76%, 9%, 1.00)" rx="1.131578947368421"></rect><rect width="30.76923076923077" height="2.263157894736842" x="415.3846153846154" y="732.2017543859648" stroke="none" fill="hsla(150, 76%, 9%, 1.00)" rx="1.131578947368421"></rect><rect width="2.263157894736842" height="30.76923076923077" x="429.63765182186233" y="717.9487179487179" stroke="none" fill="hsla(150, 76%, 9%, 1.00)" rx="1.131578947368421"></rect><rect width="30.76923076923077" height="2.263157894736842" x="476.92307692307696" y="732.2017543859648" stroke="none" fill="hsla(150, 76%, 9%, 1.00)" rx="1.131578947368421"></rect><rect width="2.263157894736842" height="30.76923076923077" x="491.1761133603239" y="717.9487179487179" stroke="none" fill="hsla(150, 76%, 9%, 1.00)" rx="1.131578947368421"></rect><rect width="30.76923076923077" height="2.263157894736842" x="538.4615384615385" y="732.2017543859648" stroke="none" fill="hsla(150, 76%, 9%, 1.00)" rx="1.131578947368421"></rect><rect width="2.263157894736842" height="30.76923076923077" x="552.7145748987854" y="717.9487179487179" stroke="none" fill="hsla(150, 76%, 9%, 1.00)" rx="1.131578947368421"></rect><rect width="30.76923076923077" height="2.263157894736842" x="600" y="732.2017543859648" stroke="none" fill="hsla(150, 76%, 9%, 1.00)" rx="1.131578947368421"></rect><rect width="2.263157894736842" height="30.76923076923077" x="614.2530364372469" y="717.9487179487179" stroke="none" fill="hsla(150, 76%, 9%, 1.00)" rx="1.131578947368421"></rect><rect width="30.76923076923077" height="2.263157894736842" x="661.5384615384615" y="732.2017543859648" stroke="none" fill="hsla(150, 76%, 9%, 1.00)" rx="1.131578947368421"></rect><rect width="2.263157894736842" height="30.76923076923077" x="675.7914979757085" y="717.9487179487179" stroke="none" fill="hsla(150, 76%, 9%, 1.00)" rx="1.131578947368421"></rect><rect width="30.76923076923077" height="2.263157894736842" x="723.0769230769231" y="732.2017543859648" stroke="none" fill="hsla(150, 76%, 9%, 1.00)" rx="1.131578947368421"></rect><rect width="2.263157894736842" height="30.76923076923077" x="737.32995951417" y="717.9487179487179" stroke="none" fill="hsla(150, 76%, 9%, 1.00)" rx="1.131578947368421"></rect><rect width="30.76923076923077" height="2.263157894736842" x="784.6153846153846" y="732.2017543859648" stroke="none" fill="hsla(150, 76%, 9%, 1.00)" rx="1.131578947368421"></rect><rect width="2.263157894736842" height="30.76923076923077" x="798.8684210526316" y="717.9487179487179" stroke="none" fill="hsla(150, 76%, 9%, 1.00)" rx="1.131578947368421"></rect><rect width="30.76923076923077" height="2.263157894736842" x="-15.384615384615385" y="798.8684210526314" stroke="none" fill="hsla(150, 76%, 9%, 1.00)" rx="1.131578947368421"></rect><rect width="2.263157894736842" height="30.76923076923077" x="-1.131578947368421" y="784.6153846153845" stroke="none" fill="hsla(150, 76%, 9%, 1.00)" rx="1.131578947368421"></rect><rect width="30.76923076923077" height="2.263157894736842" x="46.15384615384615" y="798.8684210526314" stroke="none" fill="hsla(150, 76%, 9%, 1.00)" rx="1.131578947368421"></rect><rect width="2.263157894736842" height="30.76923076923077" x="60.40688259109312" y="784.6153846153845" stroke="none" fill="hsla(150, 76%, 9%, 1.00)" rx="1.131578947368421"></rect><rect width="30.76923076923077" height="2.263157894736842" x="107.6923076923077" y="798.8684210526314" stroke="none" fill="hsla(150, 76%, 9%, 1.00)" rx="1.131578947368421"></rect><rect width="2.263157894736842" height="30.76923076923077" x="121.94534412955466" y="784.6153846153845" stroke="none" fill="hsla(150, 76%, 9%, 1.00)" rx="1.131578947368421"></rect><rect width="30.76923076923077" height="2.263157894736842" x="169.23076923076923" y="798.8684210526314" stroke="none" fill="hsla(150, 76%, 9%, 1.00)" rx="1.131578947368421"></rect><rect width="2.263157894736842" height="30.76923076923077" x="183.4838056680162" y="784.6153846153845" stroke="none" fill="hsla(150, 76%, 9%, 1.00)" rx="1.131578947368421"></rect><rect width="30.76923076923077" height="2.263157894736842" x="230.76923076923077" y="798.8684210526314" stroke="none" fill="hsla(150, 76%, 9%, 1.00)" rx="1.131578947368421"></rect><rect width="2.263157894736842" height="30.76923076923077" x="245.02226720647775" y="784.6153846153845" stroke="none" fill="hsla(150, 76%, 9%, 1.00)" rx="1.131578947368421"></rect><rect width="30.76923076923077" height="2.263157894736842" x="292.3076923076923" y="798.8684210526314" stroke="none" fill="hsla(150, 76%, 9%, 1.00)" rx="1.131578947368421"></rect><rect width="2.263157894736842" height="30.76923076923077" x="306.56072874493924" y="784.6153846153845" stroke="none" fill="hsla(150, 76%, 9%, 1.00)" rx="1.131578947368421"></rect><rect width="30.76923076923077" height="2.263157894736842" x="353.84615384615387" y="798.8684210526314" stroke="none" fill="hsla(150, 76%, 9%, 1.00)" rx="1.131578947368421"></rect><rect width="2.263157894736842" height="30.76923076923077" x="368.0991902834008" y="784.6153846153845" stroke="none" fill="hsla(150, 76%, 9%, 1.00)" rx="1.131578947368421"></rect><rect width="30.76923076923077" height="2.263157894736842" x="415.3846153846154" y="798.8684210526314" stroke="none" fill="hsla(150, 76%, 9%, 1.00)" rx="1.131578947368421"></rect><rect width="2.263157894736842" height="30.76923076923077" x="429.63765182186233" y="784.6153846153845" stroke="none" fill="hsla(150, 76%, 9%, 1.00)" rx="1.131578947368421"></rect><rect width="30.76923076923077" height="2.263157894736842" x="476.92307692307696" y="798.8684210526314" stroke="none" fill="hsla(150, 76%, 9%, 1.00)" rx="1.131578947368421"></rect><rect width="2.263157894736842" height="30.76923076923077" x="491.1761133603239" y="784.6153846153845" stroke="none" fill="hsla(150, 76%, 9%, 1.00)" rx="1.131578947368421"></rect><rect width="30.76923076923077" height="2.263157894736842" x="538.4615384615385" y="798.8684210526314" stroke="none" fill="hsla(150, 76%, 9%, 1.00)" rx="1.131578947368421"></rect><rect width="2.263157894736842" height="30.76923076923077" x="552.7145748987854" y="784.6153846153845" stroke="none" fill="hsla(150, 76%, 9%, 1.00)" rx="1.131578947368421"></rect><rect width="30.76923076923077" height="2.263157894736842" x="600" y="798.8684210526314" stroke="none" fill="hsla(150, 76%, 9%, 1.00)" rx="1.131578947368421"></rect><rect width="2.263157894736842" height="30.76923076923077" x="614.2530364372469" y="784.6153846153845" stroke="none" fill="hsla(150, 76%, 9%, 1.00)" rx="1.131578947368421"></rect><rect width="30.76923076923077" height="2.263157894736842" x="661.5384615384615" y="798.8684210526314" stroke="none" fill="hsla(150, 76%, 9%, 1.00)" rx="1.131578947368421"></rect><rect width="2.263157894736842" height="30.76923076923077" x="675.7914979757085" y="784.6153846153845" stroke="none" fill="hsla(150, 76%, 9%, 1.00)" rx="1.131578947368421"></rect><rect width="30.76923076923077" height="2.263157894736842" x="723.0769230769231" y="798.8684210526314" stroke="none" fill="hsla(150, 76%, 9%, 1.00)" rx="1.131578947368421"></rect><rect width="2.263157894736842" height="30.76923076923077" x="737.32995951417" y="784.6153846153845" stroke="none" fill="hsla(150, 76%, 9%, 1.00)" rx="1.131578947368421"></rect><rect width="30.76923076923077" height="2.263157894736842" x="784.6153846153846" y="798.8684210526314" stroke="none" fill="hsla(150, 76%, 9%, 1.00)" rx="1.131578947368421"></rect><rect width="2.263157894736842" height="30.76923076923077" x="798.8684210526316" y="784.6153846153845" stroke="none" fill="hsla(150, 76%, 9%, 1.00)" rx="1.131578947368421"></rect></g></svg>